<svg width="175" height="55" viewBox="0 0 175 55" fill="none" xmlns="http://www.w3.org/2000/svg">
<path d="M65.625 9.36914H68.725L71.85 26.1691H72.7L75.425 9.36914H82.225L84.95 26.1691H85.8L88.925 9.36914H92.025L88.7 26.9941H82.05L79.25 10.1941H78.4L75.6 26.9941H68.95L65.625 9.36914ZM94.3928 25.4941C93.1094 24.3275 92.4678 22.7358 92.4678 20.7191C92.4678 18.7025 93.1094 17.1108 94.3928 15.9441C95.6761 14.7775 97.3344 14.1941 99.3678 14.1941C101.384 14.1941 103.034 14.7775 104.318 15.9441C105.601 17.1108 106.243 18.7025 106.243 20.7191C106.243 22.7358 105.601 24.3275 104.318 25.4941C103.034 26.6608 101.384 27.2441 99.3678 27.2441C97.3344 27.2441 95.6761 26.6608 94.3928 25.4941ZM96.6678 17.9941C96.0178 18.6608 95.6928 19.5691 95.6928 20.7191C95.6928 21.8691 96.0178 22.7775 96.6678 23.4441C97.3178 24.1108 98.2178 24.4441 99.3678 24.4441C100.518 24.4441 101.418 24.1108 102.068 23.4441C102.718 22.7775 103.043 21.8691 103.043 20.7191C103.043 19.5691 102.718 18.6608 102.068 17.9941C101.418 17.3275 100.518 16.9941 99.3678 16.9941C98.2178 16.9941 97.3178 17.3275 96.6678 17.9941ZM108.422 26.9941V16.1691C108.422 15.5358 108.589 15.0525 108.922 14.7191C109.272 14.3858 109.764 14.2275 110.397 14.2441L118.122 14.4441V17.2441L111.647 17.0691V26.9941H108.422ZM118.707 26.9941V24.1941H122.207V11.2441L119.382 11.4191V8.61914L123.432 8.41914C124.082 8.38581 124.574 8.53581 124.907 8.86914C125.257 9.20247 125.432 9.70247 125.432 10.3691V24.1941H128.907V26.9941H118.707ZM144.044 26.9941H140.819V25.7941L141.419 23.8941H140.569C139.819 26.1275 138.152 27.2441 135.569 27.2441C133.819 27.2441 132.436 26.6275 131.419 25.3941C130.419 24.1608 129.919 22.6025 129.919 20.7191C129.919 18.8358 130.419 17.2775 131.419 16.0441C132.436 14.8108 133.819 14.1941 135.569 14.1941C138.152 14.1941 139.819 15.3191 140.569 17.5691H141.419L140.819 15.6441V8.61914H144.044V26.9941ZM139.794 23.5191C140.477 22.9025 140.819 21.9691 140.819 20.7191C140.819 19.4691 140.477 18.5358 139.794 17.9191C139.111 17.3025 138.161 16.9941 136.944 16.9941C134.411 16.9941 133.144 18.2358 133.144 20.7191C133.144 23.2025 134.411 24.4441 136.944 24.4441C138.161 24.4441 139.111 24.1358 139.794 23.5191ZM146.13 20.5691C146.13 18.6025 146.722 17.0525 147.905 15.9191C149.088 14.7691 150.63 14.1941 152.53 14.1941C154.43 14.1941 155.955 14.7441 157.105 15.8441C158.272 16.9441 158.855 18.4358 158.855 20.3191V21.3691H149.18C149.213 22.3525 149.53 23.1441 150.13 23.7441C150.747 24.3275 151.672 24.6191 152.905 24.6191C154.688 24.6191 155.747 23.9441 156.08 22.5941H159.305C159.088 23.7441 158.438 24.8108 157.355 25.7941C156.272 26.7608 154.788 27.2441 152.905 27.2441C150.688 27.2441 149.005 26.6108 147.855 25.3441C146.705 24.0775 146.13 22.4858 146.13 20.5691ZM149.18 19.4191H155.805C155.805 18.6691 155.53 18.0525 154.98 17.5691C154.447 17.0858 153.63 16.8441 152.53 16.8441C151.43 16.8441 150.597 17.0941 150.03 17.5941C149.463 18.0775 149.18 18.6858 149.18 19.4191ZM159.308 26.9941L164.058 21.1191V20.2941L159.308 14.4441H163.133L166.408 18.8691L169.658 14.4441H173.483L168.733 20.2941V21.1191L173.483 26.9941H169.658L166.408 22.5441L163.133 26.9941H159.308Z" fill="#1A1B22"/>
<path d="M69.704 43.6257C69.0213 43.6257 68.4293 43.5243 67.928 43.3217C67.4267 43.1083 67.0053 42.815 66.664 42.4417C66.3333 42.0577 66.0827 41.6043 65.912 41.0817C65.752 40.5483 65.672 39.9617 65.672 39.3217C65.672 38.6817 65.7573 38.095 65.928 37.5617C66.1093 37.0283 66.376 36.5697 66.728 36.1857C67.08 35.8017 67.5067 35.4977 68.008 35.2737C68.5093 35.0497 69.0907 34.9377 69.752 34.9377C70.7227 34.9377 71.528 35.1617 72.168 35.6097C72.808 36.047 73.2133 36.7457 73.384 37.7057H71.512C71.416 37.3323 71.208 37.0497 70.888 36.8577C70.568 36.6657 70.1787 36.5697 69.72 36.5697C69.3147 36.5697 68.968 36.6443 68.68 36.7937C68.392 36.943 68.1573 37.1457 67.976 37.4017C67.7947 37.6577 67.6613 37.9563 67.576 38.2977C67.5013 38.6283 67.464 38.975 67.464 39.3377C67.464 39.711 67.5067 40.063 67.592 40.3937C67.6773 40.7243 67.8107 41.0123 67.992 41.2577C68.1733 41.4923 68.408 41.6843 68.696 41.8337C68.984 41.9723 69.3307 42.0417 69.736 42.0417C70.216 42.0417 70.6107 41.935 70.92 41.7217C71.24 41.5083 71.4427 41.2257 71.528 40.8737H73.416C73.3307 41.3537 73.1707 41.7697 72.936 42.1217C72.712 42.4737 72.4347 42.7617 72.104 42.9857C71.7733 43.2097 71.4053 43.375 71 43.4817C70.5947 43.5777 70.1627 43.6257 69.704 43.6257ZM78.7684 34.9377C79.4404 34.9377 80.0324 35.0443 80.5444 35.2577C81.0564 35.471 81.4884 35.7697 81.8404 36.1537C82.203 36.527 82.475 36.9803 82.6564 37.5137C82.8377 38.047 82.9284 38.639 82.9284 39.2897C82.9284 39.951 82.8377 40.5483 82.6564 41.0817C82.4857 41.6043 82.2244 42.0577 81.8724 42.4417C81.5204 42.8257 81.083 43.119 80.5604 43.3217C80.0484 43.5243 79.451 43.6257 78.7684 43.6257C78.0964 43.6257 77.5044 43.5243 76.9924 43.3217C76.4804 43.1083 76.0484 42.815 75.6964 42.4417C75.355 42.0577 75.0937 41.599 74.9124 41.0657C74.7417 40.5323 74.6564 39.9403 74.6564 39.2897C74.6564 38.639 74.7417 38.047 74.9124 37.5137C75.0937 36.9803 75.3604 36.527 75.7124 36.1537C76.0644 35.7697 76.4964 35.471 77.0084 35.2577C77.5204 35.0443 78.107 34.9377 78.7684 34.9377ZM78.7684 42.0417C79.1844 42.0417 79.5364 41.9723 79.8244 41.8337C80.123 41.6843 80.363 41.487 80.5444 41.2417C80.7364 40.9963 80.875 40.7083 80.9604 40.3777C81.0564 40.047 81.1044 39.6897 81.1044 39.3057C81.1044 38.9217 81.0564 38.5643 80.9604 38.2337C80.875 37.8923 80.7364 37.599 80.5444 37.3537C80.363 37.1083 80.123 36.9163 79.8244 36.7777C79.5364 36.639 79.1844 36.5697 78.7684 36.5697C78.363 36.5697 78.0164 36.639 77.7284 36.7777C77.4404 36.9163 77.2004 37.1083 77.0084 37.3537C76.8164 37.599 76.6724 37.8923 76.5764 38.2337C76.491 38.5643 76.4484 38.9217 76.4484 39.3057C76.4484 39.6897 76.491 40.047 76.5764 40.3777C76.6724 40.7083 76.811 40.9963 76.9924 41.2417C77.1844 41.487 77.4244 41.6843 77.7124 41.8337C78.011 41.9723 78.363 42.0417 78.7684 42.0417ZM86.3298 35.0817C86.3404 35.167 86.3458 35.2523 86.3458 35.3377L86.3938 35.8337C86.4044 35.919 86.4098 36.0043 86.4098 36.0897C86.9964 35.3003 87.7644 34.9057 88.7138 34.9057C89.3111 34.9057 89.7911 35.0283 90.1538 35.2737C90.5164 35.519 90.7991 35.8443 91.0018 36.2497C91.3324 35.8123 91.7058 35.4817 92.1218 35.2577C92.5484 35.023 93.0444 34.9057 93.6098 34.9057C94.0898 34.9057 94.5004 34.9857 94.8418 35.1457C95.1938 35.3057 95.4711 35.5297 95.6738 35.8177C95.8871 36.1057 96.0418 36.4417 96.1378 36.8257C96.2338 37.199 96.2818 37.599 96.2818 38.0257V43.5137H94.4578V38.6977C94.4578 38.4417 94.4418 38.1857 94.4098 37.9297C94.3778 37.6737 94.3084 37.4443 94.2018 37.2417C94.1058 37.0283 93.9618 36.8577 93.7698 36.7297C93.5778 36.591 93.3218 36.5217 93.0017 36.5217C92.6604 36.5217 92.3778 36.607 92.1538 36.7777C91.9404 36.9377 91.7698 37.135 91.6418 37.3697C91.5244 37.6043 91.4444 37.871 91.4018 38.1697C91.3591 38.4577 91.3378 38.7457 91.3378 39.0337V43.5137H89.5298V38.6657C89.5298 38.4203 89.5138 38.175 89.4818 37.9297C89.4604 37.6737 89.4018 37.4443 89.3058 37.2417C89.2098 37.039 89.0658 36.8683 88.8738 36.7297C88.6924 36.591 88.4364 36.5217 88.1058 36.5217C87.7644 36.5217 87.4764 36.607 87.2418 36.7777C87.0178 36.9483 86.8418 37.1617 86.7138 37.4177C86.5858 37.663 86.5004 37.935 86.4578 38.2337C86.4151 38.5217 86.3938 38.7883 86.3938 39.0337V43.5137H84.5858V35.0817H86.3298ZM98.1795 46.7937V35.0817H99.9075L100.004 36.2817C100.334 35.8337 100.74 35.4977 101.22 35.2737C101.7 35.0497 102.217 34.9377 102.772 34.9377C103.348 34.9377 103.865 35.0443 104.324 35.2577C104.782 35.4603 105.172 35.7483 105.492 36.1217C105.822 36.495 106.068 36.9483 106.227 37.4817C106.398 38.0043 106.484 38.6017 106.484 39.2737C106.484 39.903 106.404 40.4843 106.244 41.0177C106.084 41.551 105.844 42.015 105.524 42.4097C105.214 42.7937 104.825 43.0923 104.356 43.3057C103.897 43.519 103.358 43.6257 102.74 43.6257C102.206 43.6257 101.7 43.5457 101.22 43.3857C100.75 43.215 100.345 42.9537 100.004 42.6017V46.7937H98.1795ZM102.388 42.0417C102.782 42.0417 103.124 41.9723 103.412 41.8337C103.7 41.6843 103.934 41.487 104.116 41.2417C104.308 40.9963 104.446 40.7083 104.532 40.3777C104.628 40.047 104.676 39.6897 104.676 39.3057C104.676 38.9217 104.628 38.5643 104.532 38.2337C104.446 37.8923 104.308 37.599 104.116 37.3537C103.934 37.1083 103.694 36.9163 103.396 36.7777C103.108 36.639 102.761 36.5697 102.356 36.5697C101.961 36.5697 101.62 36.6443 101.332 36.7937C101.044 36.943 100.798 37.1403 100.596 37.3857C100.393 37.631 100.238 37.9243 100.132 38.2657C100.036 38.5963 99.9875 38.9377 99.9875 39.2897C99.9875 40.0683 100.19 40.719 100.596 41.2417C101.001 41.7643 101.598 42.031 102.388 42.0417ZM113.588 42.4737C113.311 42.8683 112.943 43.1617 112.484 43.3537C112.026 43.535 111.514 43.6257 110.948 43.6257C110.5 43.6257 110.09 43.5723 109.716 43.4657C109.354 43.359 109.034 43.199 108.756 42.9857C108.479 42.7617 108.26 42.4897 108.1 42.1697C107.94 41.839 107.86 41.4657 107.86 41.0497C107.86 40.591 107.951 40.2017 108.132 39.8817C108.314 39.551 108.559 39.2843 108.868 39.0817C109.188 38.879 109.562 38.7297 109.988 38.6337C110.415 38.527 110.863 38.4737 111.332 38.4737H113.492C113.492 37.855 113.354 37.375 113.076 37.0337C112.799 36.6923 112.314 36.5163 111.62 36.5057C111.215 36.5057 110.863 36.575 110.564 36.7137C110.276 36.8523 110.084 37.0817 109.988 37.4017H108.116C108.18 36.9537 108.324 36.575 108.548 36.2657C108.783 35.9563 109.06 35.7003 109.38 35.4977C109.711 35.295 110.074 35.151 110.468 35.0657C110.874 34.9803 111.279 34.9377 111.684 34.9377C112.207 34.9377 112.692 35.007 113.14 35.1457C113.588 35.2843 113.978 35.519 114.308 35.8497C114.682 36.2337 114.932 36.6923 115.06 37.2257C115.188 37.759 115.252 38.3403 115.252 38.9697V43.5137H113.668L113.588 42.4737ZM113.492 39.7697H111.732C111.423 39.7697 111.114 39.7963 110.804 39.8497C110.495 39.8923 110.228 40.0043 110.004 40.1857C109.791 40.3563 109.684 40.607 109.684 40.9377C109.684 41.343 109.828 41.6523 110.116 41.8657C110.415 42.0683 110.778 42.1697 111.204 42.1697C111.535 42.1697 111.839 42.127 112.116 42.0417C112.404 41.9563 112.65 41.8177 112.852 41.6257C113.055 41.423 113.21 41.1723 113.316 40.8737C113.434 40.5643 113.492 40.1963 113.492 39.7697ZM117.211 43.5137V35.0817H118.955L119.051 36.2497C119.36 35.8123 119.744 35.487 120.203 35.2737C120.672 35.0497 121.168 34.9377 121.691 34.9377C122.288 34.9377 122.789 35.039 123.195 35.2417C123.611 35.4443 123.947 35.7217 124.203 36.0737C124.469 36.4257 124.656 36.8417 124.763 37.3217C124.88 37.8017 124.939 38.3243 124.939 38.8897V43.5137H123.115V39.1617C123.115 38.799 123.088 38.463 123.035 38.1537C122.992 37.8443 122.901 37.5723 122.763 37.3377C122.624 37.0923 122.427 36.9003 122.171 36.7617C121.925 36.623 121.605 36.5537 121.211 36.5537C120.837 36.5537 120.496 36.6443 120.187 36.8257C119.888 37.007 119.653 37.2417 119.483 37.5297C119.323 37.8177 119.205 38.1377 119.131 38.4897C119.067 38.8417 119.035 39.1777 119.035 39.4977V43.5137H117.211ZM134.659 35.0817V42.1697C134.659 42.6497 134.648 43.1403 134.627 43.6417C134.616 44.143 134.531 44.6337 134.371 45.1137C134.126 45.8817 133.683 46.4843 133.043 46.9217C132.403 47.359 131.544 47.5777 130.467 47.5777C129.827 47.5777 129.208 47.4923 128.611 47.3217C128.024 47.151 127.47 46.8683 126.947 46.4737C127.064 46.2283 127.176 45.9723 127.283 45.7057C127.4 45.4497 127.518 45.1937 127.635 44.9377C127.987 45.215 128.387 45.4497 128.835 45.6417C129.294 45.8337 129.816 45.9297 130.403 45.9297C130.968 45.9297 131.411 45.8337 131.731 45.6417C132.051 45.4497 132.291 45.1883 132.451 44.8577C132.622 44.5377 132.728 44.1643 132.771 43.7377C132.824 43.3217 132.851 42.895 132.851 42.4577C132.552 42.8843 132.179 43.1883 131.731 43.3697C131.294 43.551 130.798 43.6417 130.243 43.6417C129.614 43.6417 129.075 43.5457 128.627 43.3537C128.179 43.1617 127.827 42.895 127.571 42.5537C127.315 42.2123 127.134 41.807 127.027 41.3377C126.92 40.8683 126.867 40.3563 126.867 39.8017V35.0817H128.675V39.4497C128.675 39.791 128.696 40.1217 128.739 40.4417C128.792 40.751 128.888 41.0283 129.027 41.2737C129.176 41.5083 129.379 41.7003 129.635 41.8497C129.891 41.9883 130.227 42.0577 130.643 42.0577C131.07 42.0577 131.422 41.9723 131.699 41.8017C131.987 41.631 132.211 41.4123 132.371 41.1457C132.542 40.8683 132.659 40.5537 132.723 40.2017C132.798 39.8497 132.835 39.487 132.835 39.1137V35.0817H134.659Z" fill="#696E7E"/>
<path fill-rule="evenodd" clip-rule="evenodd" d="M27.5003 0L44.1036 9.53663L39.4994 12.1138L27.5003 5.2217L8.08849 16.3714L8.08849 38.6523L14.5591 42.3689V47.5906L3.55908 41.2724L3.55908 13.7513L27.5003 0Z" fill="#1A1B22"/>
<mask id="mask0_97_33" style="mask-type:alpha" maskUnits="userSpaceOnUse" x="3" y="0" width="49" height="55">
<path d="M27.5 0.0234375L51.3157 13.7675V41.2556L27.5 54.9997L3.6843 41.2556L3.6843 13.7675L27.5 0.0234375Z" fill="#D9D9D9"/>
</mask>
<g mask="url(#mask0_97_33)">
<path d="M21.3532 25.248L16.1768 28.1586V54.9999H21.3532V25.248Z" fill="#27B1FF"/>
<path d="M33.6467 18.1328L28.4702 21.0433V55.9694H33.6467V18.1328Z" fill="#27B1FF"/>
<path d="M45.9411 10.6953L40.7646 13.6058V51.4424H45.9411V10.6953Z" fill="#27B1FF"/>
<path d="M21.3533 25.248L26.5298 28.1586V54.9999H21.3533V25.248Z" fill="#3A95EF"/>
<path d="M33.6468 18.1328L38.8232 21.0433V55.9694H33.6468V18.1328Z" fill="#3A95EF"/>
<path d="M45.9412 10.6953L51.1177 13.6058V51.4424H45.9412V10.6953Z" fill="#3A95EF"/>
</g>
<path d="M21.3532 25.2246L16.1768 28.1351L21.3532 31.0456L26.5297 28.1351L21.3532 25.2246Z" fill="#1BD6FF"/>
<path d="M33.6467 18.1094L28.4702 21.0199L33.6467 23.9304L38.8232 21.0199L33.6467 18.1094Z" fill="#1BD6FF"/>
<path d="M45.9411 10.6719L40.7646 13.5824L45.9411 16.4929L51.1176 13.5824L45.9411 10.6719Z" fill="#1BD6FF"/>
</svg>
