<svg width="175" height="56" viewBox="0 0 175 56" fill="none" xmlns="http://www.w3.org/2000/svg">
<path d="M65.625 9.375H68.725L71.85 26.175H72.7L75.425 9.375H82.225L84.95 26.175H85.8L88.925 9.375H92.025L88.7 27H82.05L79.25 10.2H78.4L75.6 27H68.95L65.625 9.375ZM94.3928 25.5C93.1094 24.3333 92.4678 22.7417 92.4678 20.725C92.4678 18.7083 93.1094 17.1167 94.3928 15.95C95.6761 14.7833 97.3344 14.2 99.3678 14.2C101.384 14.2 103.034 14.7833 104.318 15.95C105.601 17.1167 106.243 18.7083 106.243 20.725C106.243 22.7417 105.601 24.3333 104.318 25.5C103.034 26.6667 101.384 27.25 99.3678 27.25C97.3344 27.25 95.6761 26.6667 94.3928 25.5ZM96.6678 18C96.0178 18.6667 95.6928 19.575 95.6928 20.725C95.6928 21.875 96.0178 22.7833 96.6678 23.45C97.3178 24.1167 98.2178 24.45 99.3678 24.45C100.518 24.45 101.418 24.1167 102.068 23.45C102.718 22.7833 103.043 21.875 103.043 20.725C103.043 19.575 102.718 18.6667 102.068 18C101.418 17.3333 100.518 17 99.3678 17C98.2178 17 97.3178 17.3333 96.6678 18ZM108.422 27V16.175C108.422 15.5417 108.589 15.0583 108.922 14.725C109.272 14.3917 109.764 14.2333 110.397 14.25L118.122 14.45V17.25L111.647 17.075V27H108.422ZM118.707 27V24.2H122.207V11.25L119.382 11.425V8.625L123.432 8.425C124.082 8.39167 124.574 8.54167 124.907 8.875C125.257 9.20833 125.432 9.70833 125.432 10.375V24.2H128.907V27H118.707ZM144.044 27H140.819V25.8L141.419 23.9H140.569C139.819 26.1333 138.152 27.25 135.569 27.25C133.819 27.25 132.436 26.6333 131.419 25.4C130.419 24.1667 129.919 22.6083 129.919 20.725C129.919 18.8417 130.419 17.2833 131.419 16.05C132.436 14.8167 133.819 14.2 135.569 14.2C138.152 14.2 139.819 15.325 140.569 17.575H141.419L140.819 15.65V8.625H144.044V27ZM139.794 23.525C140.477 22.9083 140.819 21.975 140.819 20.725C140.819 19.475 140.477 18.5417 139.794 17.925C139.111 17.3083 138.161 17 136.944 17C134.411 17 133.144 18.2417 133.144 20.725C133.144 23.2083 134.411 24.45 136.944 24.45C138.161 24.45 139.111 24.1417 139.794 23.525ZM146.13 20.575C146.13 18.6083 146.722 17.0583 147.905 15.925C149.088 14.775 150.63 14.2 152.53 14.2C154.43 14.2 155.955 14.75 157.105 15.85C158.272 16.95 158.855 18.4417 158.855 20.325V21.375H149.18C149.213 22.3583 149.53 23.15 150.13 23.75C150.747 24.3333 151.672 24.625 152.905 24.625C154.688 24.625 155.747 23.95 156.08 22.6H159.305C159.088 23.75 158.438 24.8167 157.355 25.8C156.272 26.7667 154.788 27.25 152.905 27.25C150.688 27.25 149.005 26.6167 147.855 25.35C146.705 24.0833 146.13 22.4917 146.13 20.575ZM149.18 19.425H155.805C155.805 18.675 155.53 18.0583 154.98 17.575C154.447 17.0917 153.63 16.85 152.53 16.85C151.43 16.85 150.597 17.1 150.03 17.6C149.463 18.0833 149.18 18.6917 149.18 19.425ZM159.308 27L164.058 21.125V20.3L159.308 14.45H163.133L166.408 18.875L169.658 14.45H173.483L168.733 20.3V21.125L173.483 27H169.658L166.408 22.55L163.133 27H159.308Z" fill="#BDF3FF"/>
<path d="M69.704 43.6312C69.0213 43.6312 68.4293 43.5299 67.928 43.3272C67.4267 43.1139 67.0053 42.8206 66.664 42.4472C66.3333 42.0632 66.0827 41.6099 65.912 41.0872C65.752 40.5539 65.672 39.9672 65.672 39.3272C65.672 38.6872 65.7573 38.1006 65.928 37.5672C66.1093 37.0339 66.376 36.5752 66.728 36.1912C67.08 35.8072 67.5067 35.5032 68.008 35.2792C68.5093 35.0552 69.0907 34.9432 69.752 34.9432C70.7227 34.9432 71.528 35.1672 72.168 35.6152C72.808 36.0526 73.2133 36.7512 73.384 37.7112H71.512C71.416 37.3379 71.208 37.0552 70.888 36.8632C70.568 36.6712 70.1787 36.5752 69.72 36.5752C69.3147 36.5752 68.968 36.6499 68.68 36.7992C68.392 36.9486 68.1573 37.1512 67.976 37.4072C67.7947 37.6632 67.6613 37.9619 67.576 38.3032C67.5013 38.6339 67.464 38.9806 67.464 39.3432C67.464 39.7166 67.5067 40.0686 67.592 40.3992C67.6773 40.7299 67.8107 41.0179 67.992 41.2632C68.1733 41.4979 68.408 41.6899 68.696 41.8392C68.984 41.9779 69.3307 42.0472 69.736 42.0472C70.216 42.0472 70.6107 41.9406 70.92 41.7272C71.24 41.5139 71.4427 41.2312 71.528 40.8792H73.416C73.3307 41.3592 73.1707 41.7752 72.936 42.1272C72.712 42.4792 72.4347 42.7672 72.104 42.9912C71.7733 43.2152 71.4053 43.3806 71 43.4872C70.5947 43.5832 70.1627 43.6312 69.704 43.6312ZM78.7684 34.9432C79.4404 34.9432 80.0324 35.0499 80.5444 35.2632C81.0564 35.4766 81.4884 35.7752 81.8404 36.1592C82.203 36.5326 82.475 36.9859 82.6564 37.5192C82.8377 38.0526 82.9284 38.6446 82.9284 39.2952C82.9284 39.9566 82.8377 40.5539 82.6564 41.0872C82.4857 41.6099 82.2244 42.0632 81.8724 42.4472C81.5204 42.8312 81.083 43.1246 80.5604 43.3272C80.0484 43.5299 79.451 43.6312 78.7684 43.6312C78.0964 43.6312 77.5044 43.5299 76.9924 43.3272C76.4804 43.1139 76.0484 42.8206 75.6964 42.4472C75.355 42.0632 75.0937 41.6046 74.9124 41.0712C74.7417 40.5379 74.6564 39.9459 74.6564 39.2952C74.6564 38.6446 74.7417 38.0526 74.9124 37.5192C75.0937 36.9859 75.3604 36.5326 75.7124 36.1592C76.0644 35.7752 76.4964 35.4766 77.0084 35.2632C77.5204 35.0499 78.107 34.9432 78.7684 34.9432ZM78.7684 42.0472C79.1844 42.0472 79.5364 41.9779 79.8244 41.8392C80.123 41.6899 80.363 41.4926 80.5444 41.2472C80.7364 41.0019 80.875 40.7139 80.9604 40.3832C81.0564 40.0526 81.1044 39.6952 81.1044 39.3112C81.1044 38.9272 81.0564 38.5699 80.9604 38.2392C80.875 37.8979 80.7364 37.6046 80.5444 37.3592C80.363 37.1139 80.123 36.9219 79.8244 36.7832C79.5364 36.6446 79.1844 36.5752 78.7684 36.5752C78.363 36.5752 78.0164 36.6446 77.7284 36.7832C77.4404 36.9219 77.2004 37.1139 77.0084 37.3592C76.8164 37.6046 76.6724 37.8979 76.5764 38.2392C76.491 38.5699 76.4484 38.9272 76.4484 39.3112C76.4484 39.6952 76.491 40.0526 76.5764 40.3832C76.6724 40.7139 76.811 41.0019 76.9924 41.2472C77.1844 41.4926 77.4244 41.6899 77.7124 41.8392C78.011 41.9779 78.363 42.0472 78.7684 42.0472ZM86.3298 35.0872C86.3404 35.1726 86.3458 35.2579 86.3458 35.3432L86.3938 35.8392C86.4044 35.9246 86.4098 36.0099 86.4098 36.0952C86.9964 35.3059 87.7644 34.9112 88.7138 34.9112C89.3111 34.9112 89.7911 35.0339 90.1538 35.2792C90.5164 35.5246 90.7991 35.8499 91.0018 36.2552C91.3324 35.8179 91.7058 35.4872 92.1218 35.2632C92.5484 35.0286 93.0444 34.9112 93.6098 34.9112C94.0898 34.9112 94.5004 34.9912 94.8418 35.1512C95.1938 35.3112 95.4711 35.5352 95.6738 35.8232C95.8871 36.1112 96.0418 36.4472 96.1378 36.8312C96.2338 37.2046 96.2818 37.6046 96.2818 38.0312V43.5192H94.4578V38.7032C94.4578 38.4472 94.4418 38.1912 94.4098 37.9352C94.3778 37.6792 94.3084 37.4499 94.2018 37.2472C94.1058 37.0339 93.9618 36.8632 93.7698 36.7352C93.5778 36.5966 93.3218 36.5272 93.0017 36.5272C92.6604 36.5272 92.3778 36.6126 92.1538 36.7832C91.9404 36.9432 91.7698 37.1406 91.6418 37.3752C91.5244 37.6099 91.4444 37.8766 91.4018 38.1752C91.3591 38.4632 91.3378 38.7512 91.3378 39.0392V43.5192H89.5298V38.6712C89.5298 38.4259 89.5138 38.1806 89.4818 37.9352C89.4604 37.6792 89.4018 37.4499 89.3058 37.2472C89.2098 37.0446 89.0658 36.8739 88.8738 36.7352C88.6924 36.5966 88.4364 36.5272 88.1058 36.5272C87.7644 36.5272 87.4764 36.6126 87.2418 36.7832C87.0178 36.9539 86.8418 37.1672 86.7138 37.4232C86.5858 37.6686 86.5004 37.9406 86.4578 38.2392C86.4151 38.5272 86.3938 38.7939 86.3938 39.0392V43.5192H84.5858V35.0872H86.3298ZM98.1795 46.7992V35.0872H99.9075L100.004 36.2872C100.334 35.8392 100.74 35.5032 101.22 35.2792C101.7 35.0552 102.217 34.9432 102.772 34.9432C103.348 34.9432 103.865 35.0499 104.324 35.2632C104.782 35.4659 105.172 35.7539 105.492 36.1272C105.822 36.5006 106.068 36.9539 106.227 37.4872C106.398 38.0099 106.484 38.6072 106.484 39.2792C106.484 39.9086 106.404 40.4899 106.244 41.0232C106.084 41.5566 105.844 42.0206 105.524 42.4152C105.214 42.7992 104.825 43.0979 104.356 43.3112C103.897 43.5246 103.358 43.6312 102.74 43.6312C102.206 43.6312 101.7 43.5512 101.22 43.3912C100.75 43.2206 100.345 42.9592 100.004 42.6072V46.7992H98.1795ZM102.388 42.0472C102.782 42.0472 103.124 41.9779 103.412 41.8392C103.7 41.6899 103.934 41.4926 104.116 41.2472C104.308 41.0019 104.446 40.7139 104.532 40.3832C104.628 40.0526 104.676 39.6952 104.676 39.3112C104.676 38.9272 104.628 38.5699 104.532 38.2392C104.446 37.8979 104.308 37.6046 104.116 37.3592C103.934 37.1139 103.694 36.9219 103.396 36.7832C103.108 36.6446 102.761 36.5752 102.356 36.5752C101.961 36.5752 101.62 36.6499 101.332 36.7992C101.044 36.9486 100.798 37.1459 100.596 37.3912C100.393 37.6366 100.238 37.9299 100.132 38.2712C100.036 38.6019 99.9875 38.9432 99.9875 39.2952C99.9875 40.0739 100.19 40.7246 100.596 41.2472C101.001 41.7699 101.598 42.0366 102.388 42.0472ZM113.588 42.4792C113.311 42.8739 112.943 43.1672 112.484 43.3592C112.026 43.5406 111.514 43.6312 110.948 43.6312C110.5 43.6312 110.09 43.5779 109.716 43.4712C109.354 43.3646 109.034 43.2046 108.756 42.9912C108.479 42.7672 108.26 42.4952 108.1 42.1752C107.94 41.8446 107.86 41.4712 107.86 41.0552C107.86 40.5966 107.951 40.2072 108.132 39.8872C108.314 39.5566 108.559 39.2899 108.868 39.0872C109.188 38.8846 109.562 38.7352 109.988 38.6392C110.415 38.5326 110.863 38.4792 111.332 38.4792H113.492C113.492 37.8606 113.354 37.3806 113.076 37.0392C112.799 36.6979 112.314 36.5219 111.62 36.5112C111.215 36.5112 110.863 36.5806 110.564 36.7192C110.276 36.8579 110.084 37.0872 109.988 37.4072H108.116C108.18 36.9592 108.324 36.5806 108.548 36.2712C108.783 35.9619 109.06 35.7059 109.38 35.5032C109.711 35.3006 110.074 35.1566 110.468 35.0712C110.874 34.9859 111.279 34.9432 111.684 34.9432C112.207 34.9432 112.692 35.0126 113.14 35.1512C113.588 35.2899 113.978 35.5246 114.308 35.8552C114.682 36.2392 114.932 36.6979 115.06 37.2312C115.188 37.7646 115.252 38.3459 115.252 38.9752V43.5192H113.668L113.588 42.4792ZM113.492 39.7752H111.732C111.423 39.7752 111.114 39.8019 110.804 39.8552C110.495 39.8979 110.228 40.0099 110.004 40.1912C109.791 40.3619 109.684 40.6126 109.684 40.9432C109.684 41.3486 109.828 41.6579 110.116 41.8712C110.415 42.0739 110.778 42.1752 111.204 42.1752C111.535 42.1752 111.839 42.1326 112.116 42.0472C112.404 41.9619 112.65 41.8232 112.852 41.6312C113.055 41.4286 113.21 41.1779 113.316 40.8792C113.434 40.5699 113.492 40.2019 113.492 39.7752ZM117.211 43.5192V35.0872H118.955L119.051 36.2552C119.36 35.8179 119.744 35.4926 120.203 35.2792C120.672 35.0552 121.168 34.9432 121.691 34.9432C122.288 34.9432 122.789 35.0446 123.195 35.2472C123.611 35.4499 123.947 35.7272 124.203 36.0792C124.469 36.4312 124.656 36.8472 124.763 37.3272C124.88 37.8072 124.939 38.3299 124.939 38.8952V43.5192H123.115V39.1672C123.115 38.8046 123.088 38.4686 123.035 38.1592C122.992 37.8499 122.901 37.5779 122.763 37.3432C122.624 37.0979 122.427 36.9059 122.171 36.7672C121.925 36.6286 121.605 36.5592 121.211 36.5592C120.837 36.5592 120.496 36.6499 120.187 36.8312C119.888 37.0126 119.653 37.2472 119.483 37.5352C119.323 37.8232 119.205 38.1432 119.131 38.4952C119.067 38.8472 119.035 39.1832 119.035 39.5032V43.5192H117.211ZM134.659 35.0872V42.1752C134.659 42.6552 134.648 43.1459 134.627 43.6472C134.616 44.1486 134.531 44.6392 134.371 45.1192C134.126 45.8872 133.683 46.4899 133.043 46.9272C132.403 47.3646 131.544 47.5832 130.467 47.5832C129.827 47.5832 129.208 47.4979 128.611 47.3272C128.024 47.1566 127.47 46.8739 126.947 46.4792C127.064 46.2339 127.176 45.9779 127.283 45.7112C127.4 45.4552 127.518 45.1992 127.635 44.9432C127.987 45.2206 128.387 45.4552 128.835 45.6472C129.294 45.8392 129.816 45.9352 130.403 45.9352C130.968 45.9352 131.411 45.8392 131.731 45.6472C132.051 45.4552 132.291 45.1939 132.451 44.8632C132.622 44.5432 132.728 44.1699 132.771 43.7432C132.824 43.3272 132.851 42.9006 132.851 42.4632C132.552 42.8899 132.179 43.1939 131.731 43.3752C131.294 43.5566 130.798 43.6472 130.243 43.6472C129.614 43.6472 129.075 43.5512 128.627 43.3592C128.179 43.1672 127.827 42.9006 127.571 42.5592C127.315 42.2179 127.134 41.8126 127.027 41.3432C126.92 40.8739 126.867 40.3619 126.867 39.8072V35.0872H128.675V39.4552C128.675 39.7966 128.696 40.1272 128.739 40.4472C128.792 40.7566 128.888 41.0339 129.027 41.2792C129.176 41.5139 129.379 41.7059 129.635 41.8552C129.891 41.9939 130.227 42.0632 130.643 42.0632C131.07 42.0632 131.422 41.9779 131.699 41.8072C131.987 41.6366 132.211 41.4179 132.371 41.1512C132.542 40.8739 132.659 40.5592 132.723 40.2072C132.798 39.8552 132.835 39.4926 132.835 39.1192V35.0872H134.659Z" fill="#696E7E" fill-opacity="0.6"/>
<path fill-rule="evenodd" clip-rule="evenodd" d="M27.5003 0.00561523L44.1036 9.54225L39.4994 12.1194L27.5003 5.22732L8.08849 16.377L8.08849 38.6579L14.5591 42.3745V47.5962L3.55908 41.2781L3.55908 13.7569L27.5003 0.00561523Z" fill="#696E7E" fill-opacity="0.6"/>
<mask id="mask0_177_7254" style="mask-type:alpha" maskUnits="userSpaceOnUse" x="3" y="0" width="49" height="56">
<path d="M27.5 0.0293274L51.3157 13.7734V41.2615L27.5 55.0056L3.6843 41.2615L3.6843 13.7734L27.5 0.0293274Z" fill="#D9D9D9"/>
</mask>
<g mask="url(#mask0_177_7254)">
<path d="M21.3532 25.2537L16.1768 28.1642V55.0056H21.3532V25.2537Z" fill="#CEEDFF"/>
<path d="M33.6467 18.1392L28.4702 21.0497V55.9758H33.6467V18.1392Z" fill="#CEEDFF"/>
<path d="M45.9411 10.7012L40.7646 13.6117V51.4483H45.9411V10.7012Z" fill="#CEEDFF"/>
<path d="M21.3533 25.2537L26.5298 28.1642V55.0056H21.3533V25.2537Z" fill="#A3C6E7"/>
<path d="M33.6468 18.1392L38.8232 21.0497V55.9758H33.6468V18.1392Z" fill="#A3C6E7"/>
<path d="M45.9412 10.7012L51.1177 13.6117V51.4483H45.9412V10.7012Z" fill="#A3C6E7"/>
</g>
<path d="M21.3532 25.23L16.1768 28.1405L21.3532 31.051L26.5297 28.1405L21.3532 25.23Z" fill="#EAF7FE"/>
<path d="M33.6467 18.1154L28.4702 21.026L33.6467 23.9365L38.8232 21.026L33.6467 18.1154Z" fill="#EAF7FE"/>
<path d="M45.9411 10.6775L40.7646 13.588L45.9411 16.4985L51.1176 13.588L45.9411 10.6775Z" fill="#EAF7FE"/>
</svg>
