<svg width="34" height="34" viewBox="0 0 34 34" fill="none" xmlns="http://www.w3.org/2000/svg">
<path d="M25.6201 13.45C24.5701 8.83 20.5401 6.75 17.0001 6.75C17.0001 6.75 17.0001 6.75 16.9901 6.75C13.4601 6.75 9.4201 8.82 8.3701 13.44C7.2001 18.6 10.3601 22.97 13.2201 25.72C14.2801 26.74 15.6401 27.25 17.0001 27.25C18.3601 27.25 19.7201 26.74 20.7701 25.72C23.6301 22.97 26.7901 18.61 25.6201 13.45ZM17.0001 18.46C15.2601 18.46 13.8501 17.05 13.8501 15.31C13.8501 13.57 15.2601 12.16 17.0001 12.16C18.7401 12.16 20.1501 13.57 20.1501 15.31C20.1501 17.05 18.7401 18.46 17.0001 18.46Z" fill="#27B1FF"/>
</svg>
