<svg width="34" height="34" viewBox="0 0 34 34" fill="none" xmlns="http://www.w3.org/2000/svg">
<path d="M19.3498 7H14.6498C13.6098 7 12.7598 7.84 12.7598 8.88V9.82C12.7598 10.86 13.5998 11.7 14.6398 11.7H19.3498C20.3898 11.7 21.2298 10.86 21.2298 9.82V8.88C21.2398 7.84 20.3898 7 19.3498 7Z" fill="#27B1FF"/>
<path d="M22.24 9.81949C22.24 11.4095 20.94 12.7095 19.35 12.7095H14.65C13.06 12.7095 11.76 11.4095 11.76 9.81949C11.76 9.25949 11.16 8.90949 10.66 9.16949C9.25004 9.91949 8.29004 11.4095 8.29004 13.1195V22.5295C8.29004 24.9895 10.3 26.9995 12.76 26.9995H21.24C23.7 26.9995 25.71 24.9895 25.71 22.5295V13.1195C25.71 11.4095 24.75 9.91949 23.34 9.16949C22.84 8.90949 22.24 9.25949 22.24 9.81949ZM17.38 21.9495H13C12.59 21.9495 12.25 21.6095 12.25 21.1995C12.25 20.7895 12.59 20.4495 13 20.4495H17.38C17.79 20.4495 18.13 20.7895 18.13 21.1995C18.13 21.6095 17.79 21.9495 17.38 21.9495ZM20 17.9495H13C12.59 17.9495 12.25 17.6095 12.25 17.1995C12.25 16.7895 12.59 16.4495 13 16.4495H20C20.41 16.4495 20.75 16.7895 20.75 17.1995C20.75 17.6095 20.41 17.9495 20 17.9495Z" fill="#27B1FF"/>
</svg>
