<svg width="34" height="35" viewBox="0 0 34 35" fill="none" xmlns="http://www.w3.org/2000/svg">
<path d="M26.97 23.83C26.97 24.19 26.89 24.56 26.72 24.92C26.55 25.28 26.33 25.62 26.04 25.94C25.55 26.48 25.01 26.87 24.4 27.12C23.8 27.37 23.15 27.5 22.45 27.5C21.43 27.5 20.34 27.26 19.19 26.77C18.04 26.28 16.89 25.62 15.75 24.79C14.6 23.95 13.51 23.02 12.47 21.99C11.44 20.95 10.51 19.86 9.68 18.72C8.86 17.58 8.2 16.44 7.72 15.31C7.24 14.17 7 13.08 7 12.04C7 11.36 7.12 10.71 7.36 10.11C7.6 9.5 7.98 8.94 8.51 8.44C9.15 7.81 9.85 7.5 10.59 7.5C10.87 7.5 11.15 7.56 11.4 7.68C11.66 7.8 11.89 7.98 12.07 8.24L14.39 11.51C14.57 11.76 14.7 11.99 14.79 12.21C14.88 12.42 14.93 12.63 14.93 12.82C14.93 13.06 14.86 13.3 14.72 13.53C14.59 13.76 14.4 14 14.16 14.24L13.4 15.03C13.29 15.14 13.24 15.27 13.24 15.43C13.24 15.51 13.25 15.58 13.27 15.66C13.3 15.74 13.33 15.8 13.35 15.86C13.53 16.19 13.84 16.62 14.28 17.14C14.73 17.66 15.21 18.19 15.73 18.72C16.27 19.25 16.79 19.74 17.32 20.19C17.84 20.63 18.27 20.93 18.61 21.11C18.66 21.13 18.72 21.16 18.79 21.19C18.87 21.22 18.95 21.23 19.04 21.23C19.21 21.23 19.34 21.17 19.45 21.06L20.21 20.31C20.46 20.06 20.7 19.87 20.93 19.75C21.16 19.61 21.39 19.54 21.64 19.54C21.83 19.54 22.03 19.58 22.25 19.67C22.47 19.76 22.7 19.89 22.95 20.06L26.26 22.41C26.52 22.59 26.7 22.8 26.81 23.05C26.91 23.3 26.97 23.55 26.97 23.83Z" fill="#27B1FF"/>
</svg>
