<svg width="34" height="34" viewBox="0 0 34 34" fill="none" xmlns="http://www.w3.org/2000/svg">
<path d="M22 8.5H12C9 8.5 7 10 7 13.5V20.5C7 24 9 25.5 12 25.5H22C25 25.5 27 24 27 20.5V13.5C27 10 25 8.5 22 8.5ZM22.47 14.59L19.34 17.09C18.68 17.62 17.84 17.88 17 17.88C16.16 17.88 15.31 17.62 14.66 17.09L11.53 14.59C11.21 14.33 11.16 13.85 11.41 13.53C11.67 13.21 12.14 13.15 12.46 13.41L15.59 15.91C16.35 16.52 17.64 16.52 18.4 15.91L21.53 13.41C21.85 13.15 22.33 13.2 22.58 13.53C22.84 13.85 22.79 14.33 22.47 14.59Z" fill="#27B1FF"/>
</svg>
